<svg width="42" height="42" viewBox="0 0 42 42" fill="none" xmlns="http://www.w3.org/2000/svg">
<path d="M8.75 31.5V38.0905L11.4012 36.4998L19.7348 31.5H28C29.9303 31.5 31.5 29.9303 31.5 28V14C31.5 12.0697 29.9303 10.5 28 10.5H7C5.06975 10.5 3.5 12.0697 3.5 14V28C3.5 29.9303 5.06975 31.5 7 31.5H8.75ZM7 14H28V28H18.7652L12.25 31.9095V28H7V14Z" fill="#0C51FF"/>
<path d="M35 3.5H14C12.0697 3.5 10.5 5.06975 10.5 7H31.5C33.4303 7 35 8.56975 35 10.5V24.5C36.9303 24.5 38.5 22.9303 38.5 21V7C38.5 5.06975 36.9303 3.5 35 3.5Z" fill="#0C51FF"/>
</svg>
