<svg width="33" height="31" viewBox="0 0 33 31" fill="none" xmlns="http://www.w3.org/2000/svg">
<path d="M3.55554 2.03983C3.38291 1.95872 3.18951 1.92475 2.99734 1.94179C2.80518 1.95882 2.62196 2.02618 2.46853 2.1362C2.3151 2.24621 2.19762 2.39447 2.12945 2.56411C2.06128 2.73374 2.04515 2.91795 2.08291 3.09576L4.9766 12.4926C5.03056 12.6678 5.13602 12.825 5.28086 12.9463C5.42571 13.0677 5.60406 13.1481 5.79541 13.1785L17.531 15.025C18.0838 15.1276 18.0838 15.8716 17.531 15.9743L5.79541 17.8208C5.60406 17.8511 5.42571 17.9316 5.28086 18.0529C5.13602 18.1743 5.03056 18.3315 4.9766 18.5066L2.08291 27.9035C2.04515 28.0813 2.06128 28.2655 2.12945 28.4352C2.19762 28.6048 2.3151 28.7531 2.46853 28.8631C2.62196 28.9731 2.80518 29.0405 2.99734 29.0575C3.18951 29.0745 3.38291 29.0406 3.55554 28.9594L30.368 16.3657C30.5391 16.2852 30.6829 16.1615 30.7835 16.0085C30.884 15.8556 30.9372 15.6794 30.9372 15.4996C30.9372 15.3199 30.884 15.1437 30.7835 14.9907C30.6829 14.8378 30.5391 14.7141 30.368 14.6336L3.55554 2.03983Z" fill="#699BF7"/>
</svg>
