<svg width="38" height="35" viewBox="0 0 38 35" fill="none" xmlns="http://www.w3.org/2000/svg">
<path d="M0 17.5004L9.53668 25.455V19.4891H26.7027V15.5118H9.53668V9.5459L0 17.5004Z" fill="#0C51FF"/>
<path d="M21.1537 6.68058e-05C18.9406 -0.00630772 16.7483 0.443565 14.7038 1.32362C12.6593 2.20368 10.8032 3.49644 9.24301 5.12699L11.8894 7.87612C14.3636 5.30586 17.6539 3.88852 21.1537 3.88852C24.6536 3.88852 27.9438 5.30586 30.418 7.87612C32.8922 10.4464 34.2566 13.8643 34.2566 17.5C34.2566 21.1357 32.8922 24.5537 30.418 27.1239C27.9438 29.6942 24.6536 31.1116 21.1537 31.1116C17.6539 31.1116 14.3636 29.6942 11.8894 27.1239L9.24301 29.8731C12.4228 33.1783 16.6526 35 21.1537 35C25.6549 35 29.8846 33.1783 33.0644 29.8731C36.2461 26.5698 37.9998 22.1759 37.9998 17.5C37.9998 12.8242 36.2461 8.43023 33.0644 5.12699C31.5043 3.49644 29.6482 2.20368 27.6036 1.32362C25.5591 0.443565 23.3668 -0.00630772 21.1537 6.68058e-05Z" fill="#0C51FF"/>
</svg>
