<svg width="42" height="42" viewBox="0 0 42 42" fill="none" xmlns="http://www.w3.org/2000/svg">
<path d="M21 17.5C21.8043 17.5 22.6008 17.3416 23.3439 17.0338C24.0871 16.726 24.7623 16.2748 25.331 15.706C25.8998 15.1373 26.351 14.4621 26.6588 13.7189C26.9666 12.9758 27.125 12.1793 27.125 11.375C27.125 10.5707 26.9666 9.77418 26.6588 9.03106C26.351 8.28794 25.8998 7.61273 25.331 7.04397C24.7623 6.47521 24.0871 6.02405 23.3439 5.71624C22.6008 5.40843 21.8043 5.25 21 5.25C19.3755 5.25 17.8176 5.89531 16.669 7.04397C15.5203 8.19263 14.875 9.75055 14.875 11.375C14.875 12.9995 15.5203 14.5574 16.669 15.706C17.8176 16.8547 19.3755 17.5 21 17.5ZM5.25 35.7V36.75H36.75V35.7C36.75 31.78 36.75 29.82 35.987 28.322C35.3159 27.0049 34.2451 25.9341 32.928 25.263C31.43 24.5 29.47 24.5 25.55 24.5H16.45C12.53 24.5 10.57 24.5 9.072 25.263C7.75492 25.9341 6.6841 27.0049 6.013 28.322C5.25 29.82 5.25 31.78 5.25 35.7Z" stroke="#0C51FF" stroke-width="4" stroke-linecap="round" stroke-linejoin="round"/>
</svg>
