<svg width="18" height="19" viewBox="0 0 18 19" fill="none" xmlns="http://www.w3.org/2000/svg">
<path fill-rule="evenodd" clip-rule="evenodd" d="M13.5 0H4.5C2.02522 0 0 2.02827 0 4.50877V13.5263C0 16.0059 2.02522 18.0351 4.5 18.0351H13.5C15.9748 18.0351 18 16.0059 18 13.5263V4.50877C18 2.02827 15.9748 0 13.5 0ZM9 12.7747C6.92865 12.7747 5.24993 11.092 5.24993 9.01754C5.24993 6.94216 6.92865 5.26016 9 5.26016C11.0704 5.26016 12.7501 6.94216 12.7501 9.01754C12.7501 11.092 11.0704 12.7747 9 12.7747ZM12.7501 4.13297C12.7501 4.7554 13.2532 5.26016 13.8751 5.26016C14.497 5.26016 15.0001 4.7554 15.0001 4.13297C15.0001 3.51053 14.497 3.00577 13.8751 3.00577C13.2532 3.00577 12.7501 3.51053 12.7501 4.13297Z" fill="white"/>
</svg>
