<svg width="42" height="42" viewBox="0 0 42 42" fill="none" xmlns="http://www.w3.org/2000/svg">
<path d="M20.9125 31.5C21.525 31.5 22.043 31.2882 22.4665 30.8647C22.89 30.4412 23.1012 29.9238 23.1 29.3125C23.1 28.7 22.8888 28.182 22.4665 27.7585C22.0442 27.335 21.5262 27.1238 20.9125 27.125C20.3 27.125 19.7826 27.3368 19.3602 27.7603C18.9379 28.1838 18.7262 28.7012 18.725 29.3125C18.725 29.925 18.9367 30.443 19.3602 30.8665C19.7837 31.29 20.3012 31.5012 20.9125 31.5ZM19.3375 24.7625H22.575C22.575 23.8 22.6847 23.0417 22.904 22.4875C23.1233 21.9333 23.7428 21.175 24.7625 20.2125C25.5208 19.4542 26.1187 18.732 26.5562 18.046C26.9937 17.36 27.2125 16.5363 27.2125 15.575C27.2125 13.9417 26.6146 12.6875 25.4187 11.8125C24.2229 10.9375 22.8083 10.5 21.175 10.5C19.5125 10.5 18.1632 10.9375 17.1272 11.8125C16.0912 12.6875 15.3697 13.7375 14.9625 14.9625L17.85 16.1C17.9958 15.575 18.3242 15.0063 18.8352 14.3938C19.3462 13.7813 20.1262 13.475 21.175 13.475C22.1083 13.475 22.8083 13.7305 23.275 14.2415C23.7417 14.7525 23.975 15.3137 23.975 15.925C23.975 16.5083 23.8 17.0555 23.45 17.5665C23.1 18.0775 22.6625 18.5512 22.1375 18.9875C20.8542 20.125 20.0667 20.9854 19.775 21.5688C19.4833 22.1521 19.3375 23.2167 19.3375 24.7625ZM21 38.5C18.5792 38.5 16.3042 38.0403 14.175 37.121C12.0458 36.2017 10.1938 34.9551 8.61875 33.3813C7.04375 31.8063 5.79717 29.9542 4.879 27.825C3.96083 25.6958 3.50117 23.4208 3.5 21C3.5 18.5792 3.95967 16.3042 4.879 14.175C5.79833 12.0458 7.04492 10.1938 8.61875 8.61875C10.1938 7.04375 12.0458 5.79717 14.175 4.879C16.3042 3.96083 18.5792 3.50117 21 3.5C23.4208 3.5 25.6958 3.95967 27.825 4.879C29.9542 5.79833 31.8063 7.04492 33.3813 8.61875C34.9563 10.1938 36.2034 12.0458 37.1227 14.175C38.0421 16.3042 38.5012 18.5792 38.5 21C38.5 23.4208 38.0403 25.6958 37.121 27.825C36.2017 29.9542 34.9551 31.8063 33.3813 33.3813C31.8063 34.9563 29.9542 36.2034 27.825 37.1227C25.6958 38.0421 23.4208 38.5012 21 38.5ZM21 35C24.9083 35 28.2187 33.6437 30.9312 30.9312C33.6437 28.2187 35 24.9083 35 21C35 17.0917 33.6437 13.7812 30.9312 11.0687C28.2187 8.35625 24.9083 7 21 7C17.0917 7 13.7812 8.35625 11.0687 11.0687C8.35625 13.7812 7 17.0917 7 21C7 24.9083 8.35625 28.2187 11.0687 30.9312C13.7812 33.6437 17.0917 35 21 35Z" fill="#0C51FF"/>
</svg>
