<svg width="20" height="16" viewBox="0 0 20 16" fill="none" xmlns="http://www.w3.org/2000/svg">
<path d="M17.633 3.98575C17.646 4.1611 17.646 4.33543 17.646 4.50977C17.646 9.84515 13.593 15.9931 6.186 15.9931C3.904 15.9931 1.784 15.3308 0 14.1806C0.324 14.2177 0.636 14.2307 0.973 14.2307C2.856 14.2307 4.589 13.5934 5.974 12.5063C4.203 12.4693 2.719 11.307 2.207 9.70789C2.456 9.74496 2.706 9.77001 2.968 9.77001C3.329 9.77001 3.692 9.71991 4.029 9.63274C2.182 9.25801 0.799 7.63385 0.799 5.67203V5.62194C1.336 5.92152 1.959 6.10889 2.619 6.13393C1.534 5.41053 0.823 4.17312 0.823 2.7734C0.823 2.02394 1.022 1.3366 1.371 0.737435C3.354 3.1852 6.335 4.78531 9.677 4.96065C9.615 4.66007 9.577 4.34846 9.577 4.03585C9.577 1.81152 11.373 0 13.605 0C14.765 0 15.812 0.486947 16.548 1.27448C17.458 1.09914 18.33 0.761481 19.104 0.299583C18.805 1.23641 18.168 2.02394 17.333 2.52391C18.144 2.43574 18.93 2.2113 19.652 1.89869C19.104 2.69825 18.419 3.41064 17.633 3.98575Z" fill="white"/>
</svg>
