<svg width="42" height="42" viewBox="0 0 42 42" fill="none" xmlns="http://www.w3.org/2000/svg">
<path d="M29.2031 4.59375C25.9071 4.59375 22.9819 5.89477 21 8.13094C19.0181 5.89477 16.0929 4.59375 12.7969 4.59375C9.92614 4.59722 7.17399 5.73916 5.14407 7.76907C3.11416 9.79899 1.97222 12.5511 1.96875 15.4219C1.96875 27.2902 19.3282 36.773 20.0665 37.1716C20.3534 37.3261 20.6741 37.407 21 37.407C21.3259 37.407 21.6466 37.3261 21.9335 37.1716C22.6718 36.773 40.0312 27.2902 40.0312 15.4219C40.0278 12.5511 38.8858 9.79899 36.8559 7.76907C34.826 5.73916 32.0739 4.59722 29.2031 4.59375ZM28.3024 27.9497C26.0175 29.8886 23.5749 31.6337 21 33.1669C18.4251 31.6337 15.9825 29.8886 13.6976 27.9497C10.1423 24.8998 5.90625 20.2486 5.90625 15.4219C5.90625 13.5944 6.63222 11.8417 7.92447 10.5495C9.21671 9.25722 10.9694 8.53125 12.7969 8.53125C15.7172 8.53125 18.1617 10.0734 19.1773 12.5573C19.3251 12.9194 19.5774 13.2293 19.902 13.4474C20.2267 13.6656 20.6089 13.782 21 13.782C21.3911 13.782 21.7733 13.6656 22.098 13.4474C22.4226 13.2293 22.6749 12.9194 22.8227 12.5573C23.8383 10.0734 26.2828 8.53125 29.2031 8.53125C31.0306 8.53125 32.7833 9.25722 34.0755 10.5495C35.3678 11.8417 36.0938 13.5944 36.0938 15.4219C36.0938 20.2486 31.8577 24.8998 28.3024 27.9497Z" fill="#0C51FF"/>
</svg>
