<svg width="31" height="31" viewBox="0 0 31 31" fill="none" xmlns="http://www.w3.org/2000/svg">
<path d="M15.5001 2.42188C13.6194 2.42354 11.7612 2.83082 10.0522 3.61595C8.34316 4.40107 6.82359 5.54555 5.59711 6.97134C4.37063 8.39713 3.4661 10.0707 2.94521 11.8778C2.42431 13.685 2.29932 15.5832 2.57874 17.4431C2.85817 19.3029 3.53545 21.0806 4.56437 22.6549C5.5933 24.2292 6.94967 25.5631 8.54097 26.5655C10.1323 27.568 11.9211 28.2154 13.7853 28.4637C15.6496 28.7119 17.5455 28.5552 19.3437 28.0041C19.5723 27.9347 19.7802 27.8099 19.9491 27.6409L27.647 19.9429C27.8159 19.7739 27.9406 19.566 28.0103 19.3375C28.6086 17.3812 28.74 15.3118 28.3939 13.2956C28.0479 11.2793 27.2339 9.37225 26.0175 7.72744C24.8011 6.08264 23.216 4.7459 21.3895 3.8245C19.563 2.90311 17.5459 2.42271 15.5001 2.42188ZM25.3233 18.1532L18.1545 25.3219C15.9947 25.903 13.7035 25.7549 11.6365 24.9006C9.56949 24.0462 7.8423 22.5335 6.72301 20.5971C5.60372 18.6607 5.15493 16.409 5.4463 14.1915C5.73766 11.9739 6.75289 9.91458 8.33441 8.33307C9.91593 6.75155 11.9753 5.73632 14.1928 5.44495C16.4104 5.15358 18.6621 5.60237 20.5984 6.72166C22.5348 7.84095 24.0476 9.56814 24.9019 11.6351C25.7562 13.7022 25.9043 15.9934 25.3233 18.1532ZM9.20326 13.0781C9.20326 12.6949 9.31689 12.3203 9.52979 12.0017C9.74268 11.6831 10.0453 11.4348 10.3993 11.2881C10.7533 11.1415 11.1429 11.1031 11.5187 11.1779C11.8946 11.2526 12.2398 11.4371 12.5108 11.7081C12.7817 11.9791 12.9663 12.3243 13.041 12.7001C13.1158 13.076 13.0774 13.4655 12.9308 13.8196C12.7841 14.1736 12.5358 14.4762 12.2172 14.6891C11.8986 14.902 11.524 15.0156 11.1408 15.0156C10.6269 15.0156 10.1341 14.8115 9.77074 14.4481C9.40739 14.0848 9.20326 13.592 9.20326 13.0781ZM21.797 13.0781C21.797 13.4613 21.6834 13.8359 21.4705 14.1545C21.2576 14.4732 20.955 14.7215 20.601 14.8681C20.2469 15.0148 19.8574 15.0532 19.4815 14.9784C19.1057 14.9036 18.7605 14.7191 18.4895 14.4481C18.2185 14.1772 18.034 13.832 17.9592 13.4561C17.8845 13.0803 17.9228 12.6907 18.0695 12.3367C18.2161 11.9826 18.4645 11.68 18.7831 11.4672C19.1017 11.2543 19.4763 11.1406 19.8595 11.1406C20.3734 11.1406 20.8662 11.3448 21.2295 11.7081C21.5929 12.0715 21.797 12.5643 21.797 13.0781ZM21.602 19.1328C20.27 21.4409 18.0431 22.7656 15.5001 22.7656C12.9572 22.7656 10.7339 21.4421 9.39822 19.1328C9.21383 18.7996 9.1676 18.4074 9.26948 18.0405C9.37135 17.6735 9.61319 17.3613 9.94295 17.1708C10.2727 16.9804 10.6641 16.927 11.0328 17.0222C11.4015 17.1173 11.7181 17.3534 11.9145 17.6797C12.3856 18.4946 13.4779 19.8594 15.5001 19.8594C17.5224 19.8594 18.6147 18.4934 19.0857 17.6797C19.1792 17.5108 19.3054 17.3622 19.457 17.2426C19.6085 17.123 19.7824 17.0348 19.9684 16.9831C20.1544 16.9315 20.3489 16.9174 20.5404 16.9418C20.7319 16.9661 20.9166 17.0284 21.0838 17.1249C21.251 17.2215 21.3973 17.3504 21.5141 17.5041C21.6309 17.6578 21.7159 17.8332 21.7642 18.0202C21.8124 18.2071 21.8229 18.4018 21.7951 18.5928C21.7673 18.7838 21.7016 18.9674 21.602 19.1328Z" fill="#699BF7"/>
</svg>
