<svg width="28" height="28" viewBox="0 0 28 28" fill="none" xmlns="http://www.w3.org/2000/svg">
<path d="M21 15.3767V11.6667C20.9983 10.0136 20.4117 8.41454 19.3441 7.15257C18.2764 5.89059 16.7966 5.04716 15.1667 4.77166V3.49999C15.1667 3.19058 15.0438 2.89383 14.825 2.67504C14.6062 2.45624 14.3094 2.33333 14 2.33333C13.6906 2.33333 13.3939 2.45624 13.1751 2.67504C12.9563 2.89383 12.8334 3.19058 12.8334 3.49999V4.77166C11.2035 5.04716 9.72363 5.89059 8.65597 7.15257C7.58831 8.41454 7.0017 10.0136 7.00002 11.6667V15.3767C6.31921 15.6174 5.72952 16.0627 5.31178 16.6518C4.89405 17.2408 4.66872 17.9446 4.66669 18.6667V21C4.66669 21.3094 4.7896 21.6062 5.0084 21.825C5.22719 22.0437 5.52393 22.1667 5.83335 22.1667H9.49669C9.76535 23.1553 10.3519 24.028 11.1657 24.6502C11.9796 25.2724 12.9756 25.6095 14 25.6095C15.0245 25.6095 16.0205 25.2724 16.8343 24.6502C17.6482 24.028 18.2347 23.1553 18.5034 22.1667H22.1667C22.4761 22.1667 22.7729 22.0437 22.9916 21.825C23.2104 21.6062 23.3334 21.3094 23.3334 21V18.6667C23.3313 17.9446 23.106 17.2408 22.6883 16.6518C22.2705 16.0627 21.6808 15.6174 21 15.3767ZM9.33335 11.6667C9.33335 10.429 9.82502 9.242 10.7002 8.36683C11.5754 7.49166 12.7623 6.99999 14 6.99999C15.2377 6.99999 16.4247 7.49166 17.2999 8.36683C18.175 9.242 18.6667 10.429 18.6667 11.6667V15.1667H9.33335V11.6667ZM14 23.3333C13.5928 23.3309 13.1934 23.2219 12.8413 23.0172C12.4893 22.8126 12.1969 22.5193 11.9934 22.1667H16.0067C15.8031 22.5193 15.5108 22.8126 15.1587 23.0172C14.8067 23.2219 14.4072 23.3309 14 23.3333ZM21 19.8333H7.00002V18.6667C7.00002 18.3572 7.12294 18.0605 7.34173 17.8417C7.56052 17.6229 7.85727 17.5 8.16669 17.5H19.8334C20.1428 17.5 20.4395 17.6229 20.6583 17.8417C20.8771 18.0605 21 18.3572 21 18.6667V19.8333Z" fill="#71839B"/>
</svg>
