<svg width="28" height="28" viewBox="0 0 28 28" fill="none" xmlns="http://www.w3.org/2000/svg">
<path d="M23.2167 14.77C23.0296 14.5571 22.9265 14.2834 22.9265 14C22.9265 13.7166 23.0296 13.4429 23.2167 13.23L24.71 11.55C24.8745 11.3664 24.9767 11.1355 25.0019 10.8903C25.027 10.645 24.9739 10.3981 24.85 10.185L22.5166 6.14833C22.394 5.93544 22.2073 5.76668 21.9832 5.66613C21.759 5.56557 21.5089 5.53835 21.2683 5.58833L19.075 6.03166C18.7959 6.08933 18.5054 6.04285 18.2582 5.90099C18.011 5.75914 17.8243 5.53172 17.7333 5.26166L17.0216 3.12666C16.9434 2.89494 16.7943 2.69367 16.5954 2.55131C16.3965 2.40895 16.1579 2.3327 15.9133 2.33333H11.2466C10.9922 2.32005 10.7405 2.39041 10.5298 2.53366C10.3191 2.67691 10.1612 2.88518 10.08 3.12666L9.42665 5.26166C9.33565 5.53172 9.14895 5.75914 8.90178 5.90099C8.65461 6.04285 8.36407 6.08933 8.08498 6.03166L5.83331 5.58833C5.60529 5.55611 5.37283 5.59209 5.16522 5.69174C4.95761 5.79139 4.78413 5.95026 4.66665 6.14833L2.33331 10.185C2.20633 10.3958 2.14924 10.6413 2.17019 10.8864C2.19115 11.1316 2.28908 11.3638 2.44998 11.55L3.93165 13.23C4.11869 13.4429 4.22184 13.7166 4.22184 14C4.22184 14.2834 4.11869 14.5571 3.93165 14.77L2.44998 16.45C2.28908 16.6361 2.19115 16.8684 2.17019 17.1136C2.14924 17.3587 2.20633 17.6042 2.33331 17.815L4.66665 21.8517C4.78926 22.0646 4.97595 22.2333 5.20011 22.3339C5.42426 22.4344 5.67444 22.4616 5.91498 22.4117L8.10831 21.9683C8.3874 21.9107 8.67794 21.9571 8.92511 22.099C9.17228 22.2408 9.35898 22.4683 9.44998 22.7383L10.1616 24.8733C10.2428 25.1148 10.4008 25.3231 10.6115 25.4663C10.8221 25.6096 11.0739 25.6799 11.3283 25.6667H15.995C16.2396 25.6673 16.4782 25.591 16.677 25.4487C16.8759 25.3063 17.025 25.1051 17.1033 24.8733L17.815 22.7383C17.906 22.4683 18.0927 22.2408 18.3398 22.099C18.587 21.9571 18.8776 21.9107 19.1566 21.9683L21.35 22.4117C21.5905 22.4616 21.8407 22.4344 22.0649 22.3339C22.289 22.2333 22.4757 22.0646 22.5983 21.8517L24.9317 17.815C25.0555 17.6019 25.1087 17.355 25.0835 17.1097C25.0584 16.8645 24.9562 16.6335 24.7916 16.45L23.2167 14.77ZM21.4783 16.3333L22.4116 17.3833L20.9183 19.9733L19.5416 19.6933C18.7014 19.5216 17.8273 19.6643 17.0853 20.0944C16.3434 20.5246 15.7852 21.2121 15.5166 22.0267L15.0733 23.3333H12.0866L11.6666 22.0033C11.3981 21.1888 10.8399 20.5012 10.098 20.0711C9.35598 19.641 8.48191 19.4982 7.64165 19.67L6.26498 19.95L4.74831 17.3717L5.68165 16.3217C6.25559 15.68 6.5729 14.8492 6.5729 13.9883C6.5729 13.1274 6.25559 12.2967 5.68165 11.655L4.74831 10.605L6.24165 8.03833L7.61831 8.31833C8.45857 8.49009 9.33265 8.34735 10.0746 7.91723C10.8166 7.4871 11.3748 6.79951 11.6433 5.98499L12.0866 4.66666H15.0733L15.5166 5.99666C15.7852 6.81118 16.3434 7.49876 17.0853 7.92889C17.8273 8.35902 18.7014 8.50175 19.5416 8.32999L20.9183 8.04999L22.4116 10.64L21.4783 11.69C20.9108 12.3302 20.5974 13.1561 20.5974 14.0117C20.5974 14.8672 20.9108 15.6931 21.4783 16.3333ZM13.58 9.33333C12.657 9.33333 11.7547 9.60702 10.9873 10.1198C10.2199 10.6326 9.62175 11.3614 9.26854 12.2141C8.91533 13.0669 8.82292 14.0052 9.00298 14.9104C9.18305 15.8157 9.6275 16.6472 10.2801 17.2998C10.9328 17.9525 11.7643 18.3969 12.6696 18.577C13.5748 18.7571 14.5131 18.6646 15.3658 18.3114C16.2186 17.9582 16.9474 17.3601 17.4602 16.5927C17.973 15.8252 18.2466 14.923 18.2466 14C18.2466 12.7623 17.755 11.5753 16.8798 10.7002C16.0046 9.82499 14.8177 9.33333 13.58 9.33333ZM13.58 16.3333C13.1185 16.3333 12.6674 16.1965 12.2837 15.9401C11.8999 15.6837 11.6009 15.3193 11.4243 14.8929C11.2477 14.4666 11.2015 13.9974 11.2915 13.5448C11.3815 13.0922 11.6037 12.6764 11.9301 12.3501C12.2564 12.0238 12.6721 11.8015 13.1248 11.7115C13.5774 11.6215 14.0465 11.6677 14.4729 11.8443C14.8993 12.0209 15.2637 12.3199 15.5201 12.7037C15.7765 13.0874 15.9133 13.5385 15.9133 14C15.9133 14.6188 15.6675 15.2123 15.2299 15.6499C14.7923 16.0875 14.1988 16.3333 13.58 16.3333Z" fill="#71839B"/>
</svg>
